# xmcd
#
# Track frame offsets:
#	150
#	22372
#	36515
#	55385
#	70270
#	90257
#	118355
#	143595
#	162397
#	187685
#
# Disc length: 2862 seconds
#
# Revision: 3806322918
# Processed by: cddbd v1.5.2PL0 Copyright (c) Steve Scherf et al.
# Submitted via: EZCDAudioConverter 8.0.2.1
#
DISCID=8c0b2c0a
DTITLE=Trịnh Vĩnh Trinh - Hãy Ngồi Xuống Đây
DYEAR=1994
DGENRE=Miscellaneous
TTITLE0=Phù du
TTITLE1=Cho nhau lần cuối
TTITLE2=Xin còn gọi tên nhau
TTITLE3=Nhạc tình đêm mưa
TTITLE4=Dạ khúc cho tình nhân
TTITLE5=Hãy Ngồi Xuống Đây
TTITLE6=Mong manh
TTITLE7=Uống nước bên bờ suối
TTITLE8=Bên ni bên nớ
TTITLE9=Dĩ vãng
EXTD=
EXTT0=
EXTT1=
EXTT2=
EXTT3=
EXTT4=
EXTT5=
EXTT6=
EXTT7=
EXTT8=
EXTT9=
PLAYORDER=
